<svg version="1.1" id="Layer_1" xmlns="http://www.w3.org/2000/svg" x="0px" y="0px" viewBox="0 0 512 512" xml:space="preserve">
    <style>
        @media (prefers-color-scheme: dark) {
            .adaptive {
                fill: #fff;
            }
        }
        @media (prefers-color-scheme: light) {
            .adaptive {
                fill: #000;
            }
        }
    </style>
    <g class="adaptive">

        <path d="M490.667,64H133.077c-7.196,0-13.906,3.627-17.848,9.647L3.485,244.314c-4.647,7.098-4.647,16.274,0,23.372
                l111.744,170.667c3.942,6.02,10.652,9.647,17.848,9.647h357.589c11.782,0,21.333-9.551,21.333-21.333V85.333
                C512,73.551,502.449,64,490.667,64z M469.333,405.333H144.609L46.833,256l97.776-149.333h324.725V405.333z" />
        <path d="M198.246,356.418c8.331,8.331,21.839,8.331,30.17,0l70.248-70.248l70.248,70.248c8.331,8.331,21.839,8.331,30.17,0
                s8.331-21.839,0-30.17L328.834,256l70.248-70.248c8.331-8.331,8.331-21.839,0-30.17s-21.839-8.331-30.17,0l-70.248,70.248
                l-70.248-70.248c-8.331-8.331-21.839-8.331-30.17,0c-8.331,8.331-8.331,21.839,0,30.17L268.495,256l-70.248,70.248
                C189.915,334.58,189.915,348.087,198.246,356.418z" />

    </g>
</svg>